PathFileType	4	(X/Y/Z)	C:\Users\dbl\Desktop\LZH\BX\bx_y_5_901.trc
DataRate	CameraRate	NumFrames	NumMarkers	Units	OrigDataRate	OrigDataStartFrame	OrigNumFrames
50.00	50.00	      4	43	mm	50.00	1	      1562
Frame#	Time	Top.Head			R.Acromium			L.Acromium			Sternum			R.ASIS			L.ASIS			V.Sacral			R.Thigh.Upper			R.Thigh.Front			R.Thigh.Rear			R.Knee.Lat			R.Knee.Med			R.Shank.Upper			R.Shank.Front			R.Shank.Rear			R.Ankle.Lat			R.Midfoot.Lat			R.Toe.Lat			R.Toe.Tip			R.Toe.Med			R.Ankle.Med			R.Midfoot.Sup			R.Heel			L.Thigh.Upper			L.Thigh.Front			L.Thigh.Rear			L.Knee.Lat			L.Knee.Med			L.Shank.Upper			L.Shank.Front			L.Shank.Rear			L.Ankle.Lat			L.Midfoot.Lat			L.Toe.Lat			L.Toe.Tip			L.Toe.Med			L.Ankle.Med			L.Midfoot.Sup			L.Heel			origin1 front left			origin2 front right			origin 3 back right			origin 4 back leftt			
		X1	Y1	Z1	X2	Y2	Z2	X3	Y3	Z3	X4	Y4	Z4	X5	Y5	Z5	X6	Y6	Z6	X7	Y7	Z7	X8	Y8	Z8	X9	Y9	Z9	X10	Y10	Z10	X11	Y11	Z11	X12	Y12	Z12	X13	Y13	Z13	X14	Y14	Z14	X15	Y15	Z15	X16	Y16	Z16	X17	Y17	Z17	X18	Y18	Z18	X19	Y19	Z19	X20	Y20	Z20	X21	Y21	Z21	X22	Y22	Z22	X23	Y23	Z23	X24	Y24	Z24	X25	Y25	Z25	X26	Y26	Z26	X27	Y27	Z27	X28	Y28	Z28	X29	Y29	Z29	X30	Y30	Z30	X31	Y31	Z31	X32	Y32	Z32	X33	Y33	Z33	X34	Y34	Z34	X35	Y35	Z35	X36	Y36	Z36	X37	Y37	Z37	X38	Y38	Z38	X39	Y39	Z39	X40	Y40	Z40	X41	Y41	Z41	X42	Y42	Z42	X43	Y43	Z43	

1	0.000	-682.20679	274.82578	1842.38147	-657.56006	72.31179	1536.27380	-656.26117	462.24466	1510.67981	-543.13562	272.27310	1406.31982	-545.22797	144.21338	1055.15234	-541.76263	400.02277	1069.45996	-750.32294	260.69666	1017.24323	-574.17041	96.50475	891.83264	-529.22449	158.08804	843.86682	-622.74738	92.34339	746.56439	-646.14075	127.04381	604.13403	-634.45203	234.93878	560.35291	-683.72937	125.53144	539.88196	-600.77808	177.08528	543.44977	-722.63177	128.86276	473.21548	-684.59601	148.08621	214.15903	-613.10443	83.07000	168.05965	-568.65869	57.34201	165.21132	-490.77475	96.62679	163.67432	-528.87384	149.01607	164.76976	-630.88617	222.90988	218.39807	-589.65027	193.77766	168.89780	-714.91730	216.59035	169.45656	-567.23792	436.05521	880.40704	-523.95801	373.05676	837.36945	-614.47473	439.14752	748.11884	-649.60089	416.52722	625.25543	-621.04987	308.69003	577.10870	-659.01343	411.85535	562.08612	-608.63727	368.76389	539.88623	-711.61377	419.59491	511.70526	-678.78607	415.85855	212.55363	-582.97882	467.38422	166.62790	-542.85852	476.11655	161.00966	-481.09482	426.83032	165.19867	-523.79681	386.38486	177.37529	-642.26703	325.13266	208.09602	-594.12073	346.50626	168.98816	-733.06097	345.71597	164.51694	-443.44647	449.20486	147.08607	-450.60709	75.41766	144.51619	-805.73590	82.36789	142.63893	-799.72321	457.82086	145.23932	
2	0.020	-682.23267	274.71036	1842.34155	-657.62329	72.29885	1536.26233	-656.33374	462.18369	1510.65747	-543.13385	272.28012	1406.30579	-545.21509	144.17242	1055.16040	-541.75079	399.96979	1069.52051	-750.25916	260.67706	1017.22729	-574.14185	96.50312	891.77277	-529.17126	158.08623	843.88501	-622.71802	92.27699	746.59552	-646.14343	127.01729	604.12878	-634.38477	234.90120	560.36560	-683.73132	125.46589	539.84845	-600.76959	177.10606	543.44305	-722.58087	128.80139	473.19711	-684.56342	148.06303	214.15202	-613.09613	83.11532	168.11641	-568.69971	57.22985	165.33339	-490.77048	96.63396	163.67990	-528.88489	149.02576	164.76439	-630.81104	222.90221	218.46053	-589.66296	193.77335	168.88934	-714.92615	216.59286	169.45538	-567.20233	436.02750	880.42053	-524.01563	373.05157	837.25531	-614.48572	439.14059	748.11755	-649.58618	416.47159	625.24023	-621.00244	308.72604	577.06921	-659.00720	411.82770	562.12079	-608.57581	368.69742	539.95306	-711.63586	419.56107	511.68045	-678.77338	415.87106	212.52922	-582.99304	467.35190	166.59853	-542.88916	476.10135	160.97098	-481.13959	426.81192	165.26494	-523.80328	386.39020	177.39423	-642.20142	325.07892	208.12869	-594.09015	346.50687	169.02219	-733.03137	345.67426	164.44618	-443.47021	449.17554	147.06340	-450.59402	75.38138	144.55426	-805.75531	82.33115	142.67838	-799.75122	457.80310	145.22327	
3	0.040	-682.26416	274.59824	1842.30518	-657.68353	72.28088	1536.24731	-656.39685	462.12656	1510.63818	-543.13123	272.27939	1406.29431	-545.20160	144.13002	1055.16785	-541.72205	399.92484	1069.57849	-750.19159	260.66061	1017.21069	-574.11310	96.49806	891.71558	-529.11639	158.08398	843.90149	-622.68536	92.21535	746.62250	-646.14624	126.99409	604.12274	-634.31921	234.86743	560.37726	-683.73291	125.40575	539.81677	-600.76172	177.12395	543.43640	-722.53363	128.74483	473.18097	-684.53418	148.04155	214.14902	-613.08862	83.15633	168.16768	-568.73486	57.12979	165.44193	-490.76672	96.64185	163.68515	-528.89423	149.03580	164.76076	-630.74207	222.89464	218.51450	-589.67218	193.76845	168.88496	-714.93420	216.59616	169.45290	-567.16650	436.00089	880.43652	-524.05902	373.04773	837.15961	-614.48761	439.13651	748.12201	-649.56897	416.41687	625.22223	-620.95734	308.75888	577.03400	-658.99896	411.80054	562.15088	-608.51971	368.63647	540.01129	-711.65430	419.52982	511.65771	-678.76141	415.88217	212.50682	-583.00745	467.32275	166.57164	-542.91693	476.08881	160.93648	-481.17859	426.79477	165.32425	-523.80914	386.39505	177.41043	-642.13861	325.02545	208.16385	-594.06049	346.50656	169.05530	-733.00458	345.63666	164.38263	-443.49094	449.14853	147.04338	-450.58252	75.34761	144.58876	-805.77234	82.29775	142.71358	-799.77686	457.78799	145.20761	
4	0.060	-682.30524	274.49268	1842.27515	-657.73724	72.25394	1536.22485	-656.44244	462.07645	1510.62439	-543.12689	272.26480	1406.28723	-545.18665	144.08485	1055.17407	-541.66248	399.89468	1069.63171	-750.11725	260.64981	1017.19269	-574.08405	96.48689	891.66327	-529.05865	158.08093	843.91425	-622.64612	92.16264	746.64148	-646.14917	126.97675	604.11572	-634.25665	234.84071	560.38678	-683.73395	125.35563	539.78888	-600.75488	177.13640	543.42999	-722.49310	128.69711	473.16879	-684.51105	148.02313	214.15286	-613.08246	83.18957	168.20906	-568.75977	57.05113	165.52629	-490.76413	96.65083	163.68970	-528.90063	149.04637	164.75990	-630.68445	222.88753	218.55342	-589.67566	193.76283	168.88753	-714.94086	216.60088	169.44791	-567.12982	435.97650	880.45703	-524.07715	373.04620	837.09613	-614.47266	439.13782	748.13684	-649.54688	416.36346	625.19904	-620.91626	308.78632	577.00629	-658.98700	411.77423	562.17267	-608.47321	368.58530	540.05432	-711.66614	419.50305	511.63858	-678.75098	415.89078	212.48816	-583.02167	467.29938	166.54950	-542.93951	476.08081	160.90935	-481.20721	426.78006	165.37122	-523.81415	386.39920	177.42165	-642.08258	324.97501	208.20161	-594.03326	346.50516	169.08595	-732.98273	345.60623	164.33205	-443.50620	449.12585	147.02812	-450.57382	75.31848	144.61673	-805.78522	82.27019	142.74112	-799.79816	457.77762	145.19292	
